<svg width="207" height="85" viewBox="0 0 207 85" fill="none" xmlns="http://www.w3.org/2000/svg">
    <path d="M195.112 0H11.8877C5.32232 0 0 5.43714 0 12.1442V72.5162C0 79.2233 5.32232 84.6604 11.8877 84.6604H195.112C201.678 84.6604 207 79.2233 207 72.5162V12.1442C207 5.43714 201.678 0 195.112 0Z" fill="url(#paint0_linear_13_1124)"/>
    <path opacity="0.7" d="M195.112 1.3236C200.953 1.3236 205.708 6.18065 205.708 12.1474V72.5163C205.708 78.4831 200.953 83.3401 195.112 83.3401H11.8877C6.04696 83.3401 1.29248 78.4831 1.29248 72.5163V12.1474C1.29248 6.18065 6.04696 1.3236 11.8877 1.3236H195.112ZM195.112 0.00323486H11.8877C5.32071 0.00323486 0 5.44187 0 12.1474V72.5163C0 79.225 5.32379 84.6605 11.8877 84.6605H195.112C201.679 84.6605 207 79.2218 207 72.5163V12.1474C207 5.43873 201.676 0.00323486 195.112 0.00323486Z" fill="white"/>
    <g opacity="0.35">
    <path d="M9.05988 7.44116H16.3932C17.064 7.44116 17.6056 7.9976 17.6056 8.67979V16.1713C17.6056 16.8566 17.061 17.4099 16.3932 17.4099H9.05988C8.38902 17.4099 7.84741 16.8535 7.84741 16.1713V8.67979C7.84741 7.99446 8.3921 7.44116 9.05988 7.44116Z" fill="white"/>
    <path d="M20.372 7.44116H27.7053C28.3762 7.44116 28.9178 7.9976 28.9178 8.67979V16.1713C28.9178 16.8566 28.3731 17.4099 27.7053 17.4099H20.372C19.7012 17.4099 19.1595 16.8535 19.1595 16.1713V8.67979C19.1595 7.99446 19.7042 7.44116 20.372 7.44116Z" fill="white"/>
    <path opacity="0.7" d="M31.6844 7.44116H39.0177C39.6885 7.44116 40.2301 7.9976 40.2301 8.67979V16.1713C40.2301 16.8566 39.6855 17.4099 39.0177 17.4099H31.6844C31.0135 17.4099 30.4719 16.8535 30.4719 16.1713V8.67979C30.4719 7.99446 31.0166 7.44116 31.6844 7.44116Z" fill="white"/>
    <path d="M16.3931 18.6799H9.05671C8.38708 18.6799 7.84424 19.2345 7.84424 19.9186V27.4132C7.84424 28.0973 8.38708 28.6518 9.05671 28.6518H16.3931C17.0627 28.6518 17.6055 28.0973 17.6055 27.4132V19.9186C17.6055 19.2345 17.0627 18.6799 16.3931 18.6799Z" fill="white"/>
    <path opacity="0.7" d="M27.7053 18.6799H20.369C19.6993 18.6799 19.1565 19.2345 19.1565 19.9186V27.4132C19.1565 28.0973 19.6993 28.6518 20.369 28.6518H27.7053C28.375 28.6518 28.9178 28.0973 28.9178 27.4132V19.9186C28.9178 19.2345 28.375 18.6799 27.7053 18.6799Z" fill="white"/>
    <path opacity="0.4" d="M39.0176 18.6799H31.6812C31.0116 18.6799 30.4688 19.2345 30.4688 19.9186V27.4132C30.4688 28.0973 31.0116 28.6518 31.6812 28.6518H39.0176C39.6872 28.6518 40.2301 28.0973 40.2301 27.4132V19.9186C40.2301 19.2345 39.6872 18.6799 39.0176 18.6799Z" fill="white"/>
    <path opacity="0.7" d="M16.3931 29.9188H9.05671C8.38708 29.9188 7.84424 30.4733 7.84424 31.1574V38.652C7.84424 39.3361 8.38708 39.8906 9.05671 39.8906H16.3931C17.0627 39.8906 17.6055 39.3361 17.6055 38.652V31.1574C17.6055 30.4733 17.0627 29.9188 16.3931 29.9188Z" fill="white"/>
    <path opacity="0.4" d="M27.7053 29.9188H20.369C19.6993 29.9188 19.1565 30.4733 19.1565 31.1574V38.652C19.1565 39.3361 19.6993 39.8906 20.369 39.8906H27.7053C28.375 39.8906 28.9178 39.3361 28.9178 38.652V31.1574C28.9178 30.4733 28.375 29.9188 27.7053 29.9188Z" fill="white"/>
    <path opacity="0.2" d="M39.0176 29.9188H31.6812C31.0116 29.9188 30.4688 30.4733 30.4688 31.1574V38.652C30.4688 39.3361 31.0116 39.8906 31.6812 39.8906H39.0176C39.6872 39.8906 40.2301 39.3361 40.2301 38.652V31.1574C40.2301 30.4733 39.6872 29.9188 39.0176 29.9188Z" fill="white"/>
    <path opacity="0.4" d="M9.05988 41.1607H16.3932C17.064 41.1607 17.6056 41.7171 17.6056 42.3993V49.8908C17.6056 50.5761 17.061 51.1294 16.3932 51.1294H9.05988C8.38902 51.1294 7.84741 50.573 7.84741 49.8908V42.3993C7.84741 41.714 8.3921 41.1607 9.05988 41.1607Z" fill="white"/>
    <path opacity="0.2" d="M20.372 41.1607H27.7053C28.3762 41.1607 28.9178 41.7171 28.9178 42.3993V49.8908C28.9178 50.5761 28.3731 51.1294 27.7053 51.1294H20.372C19.7012 51.1294 19.1595 50.573 19.1595 49.8908V42.3993C19.1595 41.714 19.7042 41.1607 20.372 41.1607Z" fill="white"/>
    <path opacity="0.1" d="M31.6844 41.1607H39.0177C39.6885 41.1607 40.2301 41.7171 40.2301 42.3993V49.8908C40.2301 50.5761 39.6855 51.1294 39.0177 51.1294H31.6844C31.0135 51.1294 30.4719 50.573 30.4719 49.8908V42.3993C30.4719 41.714 31.0166 41.1607 31.6844 41.1607Z" fill="white"/>
    <path d="M79.1483 24.6746L68.7731 14.0756L58.3979 24.6746L68.7731 35.2736L79.1483 24.6746Z" fill="#F6CAFF"/>
    <path d="M72.961 64.8312L62.5858 54.2322L52.2106 64.8312L62.5858 75.4303L72.961 64.8312Z" fill="#F6CAFF"/>
    <path d="M105.752 51.7367L98.4911 44.3187L91.2298 51.7367L98.4911 59.1547L105.752 51.7367Z" fill="#F6CAFF"/>
    <path d="M119.026 19.1945L111.765 11.7765L104.504 19.1945L111.765 26.6124L119.026 19.1945Z" fill="#F6CAFF"/>
    </g>
    <path d="M40.5786 49.96V51H32.9786V49.96L35.1386 49.72C35.4319 49.6933 35.6453 49.6533 35.7786 49.6C35.9119 49.52 36.0319 49.36 36.1386 49.12C36.2719 48.8533 36.4319 48.4 36.6186 47.76L44.3386 23.8H46.8586L54.6586 47.76C54.8453 48.4 54.9919 48.8533 55.0986 49.12C55.2319 49.36 55.3653 49.52 55.4986 49.6C55.6319 49.6533 55.8319 49.6933 56.0986 49.72L58.2986 49.96V51H48.5786V49.96L50.7786 49.72C51.2053 49.6667 51.4319 49.56 51.4586 49.4C51.5119 49.2133 51.3919 48.6667 51.0986 47.76L49.4586 42.64H39.6986L38.0586 47.76C37.7653 48.6667 37.6319 49.2133 37.6586 49.4C37.7119 49.56 37.9519 49.6667 38.3786 49.72L40.5786 49.96ZM40.0986 41.36H49.0586L44.5786 27.44L40.0986 41.36ZM71.8577 32.08C70.391 32.08 69.2443 32.6933 68.4177 33.92C67.6177 35.12 67.2177 37.1067 67.2177 39.88V42.28C67.2177 45.08 67.6177 47.0933 68.4177 48.32C69.2443 49.52 70.5777 50.12 72.4177 50.12C73.671 50.12 74.6843 49.8 75.4577 49.16C76.231 48.52 76.751 47.4133 77.0177 45.84L79.1377 46.44C78.6577 48.2533 77.7777 49.5333 76.4977 50.28C75.2177 51.0267 73.791 51.4 72.2177 51.4C69.3377 51.4 67.1777 50.5067 65.7377 48.72C64.3243 46.9067 63.6177 44.4933 63.6177 41.48V40.68C63.6177 37.6933 64.3243 35.3067 65.7377 33.52C67.151 31.7067 69.191 30.8 71.8577 30.8C73.5643 30.8 74.9777 31.1333 76.0977 31.8C77.2443 32.4667 78.0577 33.3733 78.5377 34.52C79.0177 35.64 79.151 36.88 78.9377 38.24L75.7777 38.72C76.071 36.5867 75.871 34.9467 75.1777 33.8C74.511 32.6533 73.4043 32.08 71.8577 32.08ZM94.9358 32.08C93.4691 32.08 92.3224 32.6933 91.4958 33.92C90.6958 35.12 90.2958 37.1067 90.2958 39.88V42.28C90.2958 45.08 90.6958 47.0933 91.4958 48.32C92.3224 49.52 93.6558 50.12 95.4958 50.12C96.7491 50.12 97.7624 49.8 98.5358 49.16C99.3091 48.52 99.8291 47.4133 100.096 45.84L102.216 46.44C101.736 48.2533 100.856 49.5333 99.5758 50.28C98.2958 51.0267 96.8691 51.4 95.2958 51.4C92.4158 51.4 90.2558 50.5067 88.8158 48.72C87.4024 46.9067 86.6958 44.4933 86.6958 41.48V40.68C86.6958 37.6933 87.4024 35.3067 88.8158 33.52C90.2291 31.7067 92.2691 30.8 94.9358 30.8C96.6424 30.8 98.0558 31.1333 99.1758 31.8C100.322 32.4667 101.136 33.3733 101.616 34.52C102.096 35.64 102.229 36.88 102.016 38.24L98.8558 38.72C99.1491 36.5867 98.9491 34.9467 98.2558 33.8C97.5891 32.6533 96.4824 32.08 94.9358 32.08ZM125.694 46.44C125.214 48.2533 124.307 49.5333 122.974 50.28C121.667 51.0267 120.214 51.4 118.614 51.4C115.654 51.4 113.441 50.5067 111.974 48.72C110.507 46.9067 109.774 44.4933 109.774 41.48V40.68C109.774 37.6933 110.481 35.3067 111.894 33.52C113.307 31.7067 115.361 30.8 118.054 30.8C119.494 30.8 120.801 31.0933 121.974 31.68C123.174 32.2667 124.121 33.1333 124.814 34.28C125.534 35.4267 125.894 36.8533 125.894 38.56C125.894 39.36 125.814 40.2 125.654 41.08H113.374V42.28C113.374 45.08 113.801 47.0933 114.654 48.32C115.534 49.52 116.947 50.12 118.894 50.12C120.121 50.12 121.134 49.8 121.934 49.16C122.761 48.52 123.307 47.4133 123.574 45.84L125.694 46.44ZM118.054 32.08C116.481 32.08 115.307 32.68 114.534 33.88C113.761 35.08 113.374 37.0533 113.374 39.8H122.374V39.68C122.427 39.3333 122.467 39 122.494 38.68C122.521 38.3333 122.534 38.0267 122.534 37.76C122.534 35.76 122.121 34.32 121.294 33.44C120.467 32.5333 119.387 32.08 118.054 32.08ZM132.39 32.24V31.2H138.55V34.4C139.35 33.1467 140.243 32.24 141.23 31.68C142.243 31.0933 143.363 30.8 144.59 30.8C146.883 30.8 148.656 31.6667 149.91 33.4C151.19 35.1333 151.83 37.56 151.83 40.68V41.48C151.83 44.52 151.096 46.9333 149.63 48.72C148.163 50.5067 146.123 51.4 143.51 51.4C141.643 51.4 140.056 50.8267 138.75 49.68V56.28C138.75 57.1867 138.79 57.72 138.87 57.88C138.95 58.0667 139.203 58.1867 139.63 58.24L142.63 58.44V59.52H132.39V58.44L134.59 58.24C135.016 58.1867 135.27 58.0667 135.35 57.88C135.43 57.72 135.47 57.1867 135.47 56.28V34.44C135.47 33.5067 135.43 32.96 135.35 32.8C135.27 32.64 135.016 32.5333 134.59 32.48L132.39 32.24ZM144.07 32.24C143.243 32.24 142.376 32.5067 141.47 33.04C140.59 33.5733 139.683 34.6533 138.75 36.28V47.72C139.896 49.2933 141.416 50.08 143.31 50.08C145.043 50.08 146.296 49.4267 147.07 48.12C147.843 46.7867 148.23 44.9733 148.23 42.68V39.48C148.23 36.9733 147.87 35.1467 147.15 34C146.43 32.8267 145.403 32.24 144.07 32.24ZM172.073 46.92C171.673 48.4667 171.046 49.6 170.193 50.32C169.339 51.04 168.246 51.4 166.913 51.4C165.633 51.4 164.593 51.12 163.793 50.56C162.993 49.9733 162.406 49.2133 162.033 48.28C161.659 47.3467 161.473 46.3733 161.473 45.36V34.44C161.473 33.5067 161.433 32.96 161.353 32.8C161.299 32.64 161.046 32.5333 160.593 32.48L158.393 32.28V31.2H161.473V25.96L164.753 25.28V31.2H171.273V32.48H164.753V45.68C164.753 47.36 164.979 48.52 165.433 49.16C165.913 49.8 166.539 50.12 167.313 50.12C168.086 50.12 168.673 49.8267 169.073 49.24C169.499 48.6533 169.806 47.6933 169.993 46.36L172.073 46.92Z" fill="url(#paint1_linear_13_1124)"/>
    <path d="M40.5786 49.96H42.5786V48.1663L40.7955 47.9718L40.5786 49.96ZM40.5786 51V53H42.5786V51H40.5786ZM32.9786 51H30.9786V53H32.9786V51ZM32.9786 49.96L32.7577 47.9722L30.9786 48.1699V49.96H32.9786ZM35.1386 49.72L34.9575 47.7282L34.9376 47.73L34.9177 47.7322L35.1386 49.72ZM35.7786 49.6L36.5214 51.457L36.6702 51.3974L36.8076 51.315L35.7786 49.6ZM36.1386 49.12L34.3497 48.2256L34.3294 48.2662L34.311 48.3077L36.1386 49.12ZM36.6186 47.76L34.715 47.1466L34.7064 47.1732L34.6986 47.2L36.6186 47.76ZM44.3386 23.8V21.8H42.8817L42.435 23.1866L44.3386 23.8ZM46.8586 23.8L48.7604 23.1809L48.3108 21.8H46.8586V23.8ZM54.6586 47.76L56.5786 47.2L56.5699 47.1703L56.5604 47.1409L54.6586 47.76ZM55.0986 49.12L53.2416 49.8628L53.2887 49.9805L53.3503 50.0913L55.0986 49.12ZM55.4986 49.6L54.4696 51.315L54.607 51.3974L54.7558 51.457L55.4986 49.6ZM56.0986 49.72L56.3155 47.7318L56.3066 47.7308L56.2976 47.7299L56.0986 49.72ZM58.2986 49.96H60.2986V48.1663L58.5155 47.9718L58.2986 49.96ZM58.2986 51V53H60.2986V51H58.2986ZM48.5786 51H46.5786V53H48.5786V51ZM48.5786 49.96L48.3617 47.9718L46.5786 48.1663V49.96H48.5786ZM50.7786 49.72L50.9955 51.7082L51.0111 51.7065L51.0267 51.7046L50.7786 49.72ZM51.4586 49.4L49.5355 48.8506L49.5044 48.9595L49.4858 49.0712L51.4586 49.4ZM51.0986 47.76L49.1939 48.3701L49.1957 48.3756L51.0986 47.76ZM49.4586 42.64L51.3633 42.0299L50.9181 40.64H49.4586V42.64ZM39.6986 42.64V40.64H38.2391L37.7939 42.0299L39.6986 42.64ZM38.0586 47.76L39.9615 48.3756L39.9633 48.3701L38.0586 47.76ZM37.6586 49.4L35.6787 49.6828L35.7042 49.8614L35.7612 50.0325L37.6586 49.4ZM38.3786 49.72L38.1305 51.7046L38.1461 51.7065L38.1617 51.7082L38.3786 49.72ZM40.0986 41.36L38.1948 40.7473L37.3539 43.36H40.0986V41.36ZM49.0586 41.36V43.36H51.8033L50.9624 40.7473L49.0586 41.36ZM44.5786 27.44L46.4824 26.8273L44.5786 20.9118L42.6748 26.8273L44.5786 27.44ZM38.5786 49.96V51H42.5786V49.96H38.5786ZM40.5786 49H32.9786V53H40.5786V49ZM34.9786 51V49.96H30.9786V51H34.9786ZM33.1995 51.9478L35.3595 51.7078L34.9177 47.7322L32.7577 47.9722L33.1995 51.9478ZM35.3197 51.7118C35.6478 51.682 36.1043 51.6238 36.5214 51.457L35.0358 47.743C35.0905 47.7212 35.1291 47.7102 35.1436 47.7063C35.1593 47.702 35.1626 47.7019 35.15 47.7043C35.138 47.7065 35.1161 47.7102 35.0827 47.7146C35.0495 47.719 35.0081 47.7236 34.9575 47.7282L35.3197 51.7118ZM36.8076 51.315C37.4624 50.9221 37.7959 50.3155 37.9662 49.9323L34.311 48.3077C34.3009 48.3304 34.3154 48.2909 34.3686 48.22C34.4214 48.1497 34.5409 48.0103 34.7496 47.885L36.8076 51.315ZM37.9274 50.0144C38.1478 49.5737 38.3491 48.9698 38.5386 48.32L34.6986 47.2C34.5148 47.8302 34.3961 48.1329 34.3497 48.2256L37.9274 50.0144ZM38.5222 48.3734L46.2422 24.4134L42.435 23.1866L34.715 47.1466L38.5222 48.3734ZM44.3386 25.8H46.8586V21.8H44.3386V25.8ZM44.9568 24.4191L52.7568 48.3791L56.5604 47.1409L48.7604 23.1809L44.9568 24.4191ZM52.7386 48.32C52.9261 48.9628 53.0957 49.498 53.2416 49.8628L56.9556 48.3772C56.8881 48.2087 56.7645 47.8372 56.5786 47.2L52.7386 48.32ZM53.3503 50.0913C53.5412 50.4349 53.8846 50.964 54.4696 51.315L56.5276 47.885C56.7061 47.9921 56.8038 48.1021 56.835 48.1396C56.8691 48.1805 56.8707 48.1916 56.8469 48.1487L53.3503 50.0913ZM54.7558 51.457C55.1539 51.6162 55.578 51.6779 55.8996 51.7101L56.2976 47.7299C56.2552 47.7257 56.2209 47.7215 56.1939 47.7176C56.1668 47.7137 56.1495 47.7106 56.1408 47.7088C56.1318 47.707 56.1358 47.7075 56.1504 47.7116C56.1642 47.7155 56.1963 47.725 56.2414 47.743L54.7558 51.457ZM55.8817 51.7082L58.0817 51.9482L58.5155 47.9718L56.3155 47.7318L55.8817 51.7082ZM56.2986 49.96V51H60.2986V49.96H56.2986ZM58.2986 49H48.5786V53H58.2986V49ZM50.5786 51V49.96H46.5786V51H50.5786ZM48.7955 51.9482L50.9955 51.7082L50.5617 47.7318L48.3617 47.9718L48.7955 51.9482ZM51.0267 51.7046C51.322 51.6676 51.7272 51.5946 52.1202 51.4096C52.4916 51.2349 53.2608 50.7523 53.4314 49.7288L49.4858 49.0712C49.6297 48.2077 50.2723 47.8585 50.417 47.7904C50.5833 47.7121 50.6618 47.719 50.5305 47.7354L51.0267 51.7046ZM53.3816 49.9494C53.4991 49.5385 53.4722 49.1689 53.4579 49.0114C53.4392 48.8055 53.4018 48.6022 53.3621 48.4212C53.282 48.0562 53.1563 47.623 53.0015 47.1444L49.1957 48.3756C49.3342 48.8037 49.4152 49.0971 49.4551 49.2788C49.4754 49.3711 49.4764 49.3961 49.4743 49.3736C49.4731 49.3608 49.4692 49.3131 49.4718 49.2409C49.4741 49.1763 49.4834 49.033 49.5355 48.8506L53.3816 49.9494ZM53.0033 47.1499L51.3633 42.0299L47.5539 43.2501L49.1939 48.3701L53.0033 47.1499ZM49.4586 40.64H39.6986V44.64H49.4586V40.64ZM37.7939 42.0299L36.1539 47.1499L39.9633 48.3701L41.6033 43.2501L37.7939 42.0299ZM36.1557 47.1444C36.0027 47.6172 35.8791 48.0336 35.7956 48.3761C35.7541 48.5462 35.7152 48.7273 35.6894 48.9046C35.6697 49.0402 35.63 49.3422 35.6787 49.6828L39.6385 49.1172C39.6593 49.2628 39.6557 49.3704 39.6538 49.4094C39.6526 49.4343 39.6509 49.4526 39.6498 49.4632C39.6487 49.474 39.6478 49.4799 39.6478 49.4804C39.6478 49.4804 39.6497 49.4674 39.6556 49.4386C39.6613 49.4105 39.6697 49.3727 39.6816 49.3239C39.7314 49.1197 39.8211 48.8094 39.9615 48.3756L36.1557 47.1444ZM35.7612 50.0325C36.0442 50.8814 36.7153 51.2716 37.0663 51.4276C37.4431 51.5951 37.8296 51.6669 38.1305 51.7046L38.6267 47.7354C38.5009 47.7197 38.5541 47.7116 38.6909 47.7724C38.8019 47.8217 39.3263 48.0786 39.556 48.7675L35.7612 50.0325ZM38.1617 51.7082L40.3617 51.9482L40.7955 47.9718L38.5955 47.7318L38.1617 51.7082ZM40.0986 43.36H49.0586V39.36H40.0986V43.36ZM50.9624 40.7473L46.4824 26.8273L42.6748 28.0527L47.1548 41.9727L50.9624 40.7473ZM42.6748 26.8273L38.1948 40.7473L42.0024 41.9727L46.4824 28.0527L42.6748 26.8273ZM68.4177 33.92L66.7591 32.8023L66.7536 32.8106L68.4177 33.92ZM68.4177 48.32L66.7424 49.4125L66.7563 49.4338L66.7706 49.4546L68.4177 48.32ZM75.4577 49.16L76.7328 50.7008V50.7008L75.4577 49.16ZM77.0177 45.84L77.5623 43.9156L75.4182 43.3088L75.0458 45.5058L77.0177 45.84ZM79.1377 46.44L81.0711 46.9518L81.5742 45.051L79.6823 44.5156L79.1377 46.44ZM76.4977 50.28L77.5054 52.0076L76.4977 50.28ZM65.7377 48.72L64.1602 49.9495L64.1702 49.9624L64.1805 49.9751L65.7377 48.72ZM65.7377 33.52L67.3062 34.7608L67.3107 34.7552L67.3151 34.7495L65.7377 33.52ZM76.0977 31.8L75.0747 33.5186L75.0835 33.5238L75.0924 33.529L76.0977 31.8ZM78.5377 34.52L76.6928 35.2923L76.696 35.3001L76.6994 35.3078L78.5377 34.52ZM78.9377 38.24L79.238 40.2173L80.6865 39.9973L80.9135 38.5499L78.9377 38.24ZM75.7777 38.72L73.7963 38.4476L73.4317 41.0993L76.078 40.6973L75.7777 38.72ZM75.1777 33.8L73.4486 34.8052L73.4573 34.8201L73.4662 34.8348L75.1777 33.8ZM71.8577 30.08C69.719 30.08 67.9537 31.0297 66.7591 32.8023L70.0762 35.0377C70.535 34.3569 71.063 34.08 71.8577 34.08V30.08ZM66.7536 32.8106C65.6106 34.525 65.2177 37.0188 65.2177 39.88H69.2177C69.2177 37.1946 69.6247 35.715 70.0818 35.0294L66.7536 32.8106ZM65.2177 39.88V42.28H69.2177V39.88H65.2177ZM65.2177 42.28C65.2177 45.1698 65.6116 47.6786 66.7424 49.4125L70.0929 47.2275C69.6237 46.508 69.2177 44.9902 69.2177 42.28H65.2177ZM66.7706 49.4546C68.0686 51.3387 70.1138 52.12 72.4177 52.12V48.12C71.0415 48.12 70.4201 47.7013 70.0647 47.1854L66.7706 49.4546ZM72.4177 52.12C74.0176 52.12 75.5188 51.7055 76.7328 50.7008L74.1825 47.6192C73.8499 47.8945 73.3244 48.12 72.4177 48.12V52.12ZM76.7328 50.7008C78.0393 49.6196 78.6874 47.9569 78.9895 46.1742L75.0458 45.5058C74.8146 46.8698 74.4227 47.4204 74.1825 47.6192L76.7328 50.7008ZM76.473 47.7644L78.593 48.3644L79.6823 44.5156L77.5623 43.9156L76.473 47.7644ZM77.2042 45.9282C76.8219 47.3728 76.1989 48.1388 75.4899 48.5524L77.5054 52.0076C79.3564 50.9278 80.4935 49.1339 81.0711 46.9518L77.2042 45.9282ZM75.4899 48.5524C74.5348 49.1096 73.4596 49.4 72.2177 49.4V53.4C74.1224 53.4 75.9005 52.9437 77.5054 52.0076L75.4899 48.5524ZM72.2177 49.4C69.7739 49.4 68.2606 48.6632 67.2948 47.465L64.1805 49.9751C66.0947 52.3501 68.9014 53.4 72.2177 53.4V49.4ZM67.3151 47.4905C66.2503 46.1243 65.6177 44.1868 65.6177 41.48H61.6177C61.6177 44.7999 62.3984 47.6891 64.1602 49.9495L67.3151 47.4905ZM65.6177 41.48V40.68H61.6177V41.48H65.6177ZM65.6177 40.68C65.6177 38.0029 66.2487 36.0977 67.3062 34.7608L64.1691 32.2792C62.4 34.5156 61.6177 37.3838 61.6177 40.68H65.6177ZM67.3151 34.7495C68.286 33.5038 69.6962 32.8 71.8577 32.8V28.8C68.6857 28.8 66.016 29.9095 64.1602 32.2905L67.3151 34.7495ZM71.8577 32.8C73.3129 32.8 74.3458 33.0847 75.0747 33.5186L77.1206 30.0814C75.6095 29.1819 73.8157 28.8 71.8577 28.8V32.8ZM75.0924 33.529C75.8894 33.9924 76.3926 34.5752 76.6928 35.2923L80.3825 33.7477C79.7227 32.1714 78.5993 30.941 77.1029 30.071L75.0924 33.529ZM76.6994 35.3078C77.0126 36.0388 77.1246 36.8921 76.9618 37.9301L80.9135 38.5499C81.1773 36.8679 81.0227 35.2412 80.3759 33.7322L76.6994 35.3078ZM78.6373 36.2627L75.4773 36.7427L76.078 40.6973L79.238 40.2173L78.6373 36.2627ZM77.759 38.9924C78.0794 36.6623 77.9257 34.4796 76.8891 32.7652L73.4662 34.8348C73.8162 35.4138 74.0626 36.5111 73.7963 38.4476L77.759 38.9924ZM76.9067 32.7948C75.8164 30.9195 73.9759 30.08 71.8577 30.08V34.08C72.8327 34.08 73.2056 34.3871 73.4486 34.8052L76.9067 32.7948ZM91.4958 33.92L89.8372 32.8023L89.8317 32.8106L91.4958 33.92ZM91.4958 48.32L89.8206 49.4125L89.8344 49.4338L89.8488 49.4546L91.4958 48.32ZM98.5358 49.16L99.8109 50.7008V50.7008L98.5358 49.16ZM100.096 45.84L100.64 43.9156L98.4963 43.3088L98.1239 45.5058L100.096 45.84ZM102.216 46.44L104.149 46.9518L104.652 45.051L102.76 44.5156L102.216 46.44ZM99.5758 50.28L100.584 52.0076L99.5758 50.28ZM88.8158 48.72L87.2383 49.9495L87.2484 49.9624L87.2586 49.9751L88.8158 48.72ZM88.8158 33.52L90.3843 34.7608L90.3888 34.7552L90.3932 34.7495L88.8158 33.52ZM99.1758 31.8L98.1528 33.5186L98.1617 33.5238L98.1705 33.529L99.1758 31.8ZM101.616 34.52L99.7709 35.2923L99.7742 35.3001L99.7775 35.3078L101.616 34.52ZM102.016 38.24L102.316 40.2173L103.765 39.9973L103.992 38.5499L102.016 38.24ZM98.8558 38.72L96.8744 38.4476L96.5098 41.0993L99.1561 40.6973L98.8558 38.72ZM98.2558 33.8L96.5268 34.8052L96.5354 34.8201L96.5443 34.8348L98.2558 33.8ZM94.9358 30.08C92.7971 30.08 91.0318 31.0297 89.8372 32.8023L93.1543 35.0377C93.6131 34.3569 94.1411 34.08 94.9358 34.08V30.08ZM89.8317 32.8106C88.6887 34.525 88.2958 37.0188 88.2958 39.88H92.2958C92.2958 37.1946 92.7028 35.715 93.1599 35.0294L89.8317 32.8106ZM88.2958 39.88V42.28H92.2958V39.88H88.2958ZM88.2958 42.28C88.2958 45.1698 88.6898 47.6786 89.8206 49.4125L93.171 47.2275C92.7018 46.508 92.2958 44.9902 92.2958 42.28H88.2958ZM89.8488 49.4546C91.1467 51.3387 93.1919 52.12 95.4958 52.12V48.12C94.1196 48.12 93.4982 47.7013 93.1428 47.1854L89.8488 49.4546ZM95.4958 52.12C97.0957 52.12 98.5969 51.7055 99.8109 50.7008L97.2607 47.6192C96.928 47.8945 96.4026 48.12 95.4958 48.12V52.12ZM99.8109 50.7008C101.117 49.6196 101.766 47.9569 102.068 46.1742L98.1239 45.5058C97.8927 46.8698 97.5008 47.4204 97.2606 47.6192L99.8109 50.7008ZM99.5511 47.7644L101.671 48.3644L102.76 44.5156L100.64 43.9156L99.5511 47.7644ZM100.282 45.9282C99.9 47.3728 99.2771 48.1388 98.568 48.5524L100.584 52.0076C102.434 50.9278 103.572 49.1339 104.149 46.9518L100.282 45.9282ZM98.568 48.5524C97.6129 49.1096 96.5377 49.4 95.2958 49.4V53.4C97.2005 53.4 98.9786 52.9437 100.584 52.0076L98.568 48.5524ZM95.2958 49.4C92.8521 49.4 91.3387 48.6632 90.373 47.465L87.2586 49.9751C89.1728 52.3501 91.9795 53.4 95.2958 53.4V49.4ZM90.3932 47.4905C89.3284 46.1243 88.6958 44.1868 88.6958 41.48H84.6958C84.6958 44.7999 85.4765 47.6891 87.2383 49.9495L90.3932 47.4905ZM88.6958 41.48V40.68H84.6958V41.48H88.6958ZM88.6958 40.68C88.6958 38.0029 89.3268 36.0977 90.3843 34.7608L87.2472 32.2792C85.4781 34.5156 84.6958 37.3838 84.6958 40.68H88.6958ZM90.3932 34.7495C91.3641 33.5038 92.7744 32.8 94.9358 32.8V28.8C91.7639 28.8 89.0941 29.9095 87.2383 32.2905L90.3932 34.7495ZM94.9358 32.8C96.391 32.8 97.4239 33.0847 98.1528 33.5186L100.199 30.0814C98.6876 29.1819 96.8939 28.8 94.9358 28.8V32.8ZM98.1705 33.529C98.9675 33.9924 99.4707 34.5752 99.7709 35.2923L103.461 33.7477C102.801 32.1714 101.677 30.941 100.181 30.071L98.1705 33.529ZM99.7775 35.3078C100.091 36.0388 100.203 36.8921 100.04 37.9301L103.992 38.5499C104.255 36.8679 104.101 35.2412 103.454 33.7322L99.7775 35.3078ZM101.715 36.2627L98.5554 36.7427L99.1561 40.6973L102.316 40.2173L101.715 36.2627ZM100.837 38.9924C101.158 36.6623 101.004 34.4796 99.9672 32.7652L96.5443 34.8348C96.8944 35.4138 97.1407 36.5111 96.8744 38.4476L100.837 38.9924ZM99.9848 32.7948C98.8945 30.9195 97.054 30.08 94.9358 30.08V34.08C95.9109 34.08 96.2837 34.3871 96.5268 34.8052L99.9848 32.7948ZM125.694 46.44L127.627 46.9518L128.13 45.051L126.239 44.5156L125.694 46.44ZM122.974 50.28L121.997 48.535L121.989 48.5392L121.982 48.5435L122.974 50.28ZM111.974 48.72L110.419 49.9777L110.423 49.9834L110.428 49.989L111.974 48.72ZM111.894 33.52L113.462 34.7608L113.467 34.7552L113.471 34.7495L111.894 33.52ZM121.974 31.68L121.079 33.4689L121.087 33.4728L121.095 33.4768L121.974 31.68ZM124.814 34.28L123.102 35.3148L123.111 35.3293L123.12 35.3435L124.814 34.28ZM125.654 41.08V43.08H127.323L127.622 41.4378L125.654 41.08ZM113.374 41.08V39.08H111.374V41.08H113.374ZM114.654 48.32L113.012 49.4621L113.026 49.4826L113.041 49.5027L114.654 48.32ZM121.934 49.16L120.71 47.5786L120.697 47.5883L120.685 47.5983L121.934 49.16ZM123.574 45.84L124.119 43.9156L121.974 43.3088L121.602 45.5058L123.574 45.84ZM114.534 33.88L112.853 32.7966L114.534 33.88ZM113.374 39.8H111.374V41.8H113.374V39.8ZM122.374 39.8V41.8H124.374V39.8H122.374ZM122.374 39.68L120.397 39.3759L120.374 39.5271V39.68H122.374ZM122.494 38.68L124.487 38.8461L124.488 38.8334L122.494 38.68ZM121.294 33.44L119.816 34.7875L119.826 34.7985L119.836 34.8094L121.294 33.44ZM123.76 45.9282C123.385 47.3452 122.754 48.111 121.997 48.535L123.951 52.025C125.861 50.9557 127.042 49.1615 127.627 46.9518L123.76 45.9282ZM121.982 48.5435C120.996 49.1065 119.889 49.4 118.614 49.4V53.4C120.539 53.4 122.338 52.9468 123.966 52.0165L121.982 48.5435ZM118.614 49.4C116.071 49.4 114.505 48.6506 113.52 47.451L110.428 49.989C112.377 52.3627 115.237 53.4 118.614 53.4V49.4ZM113.529 47.4623C112.425 46.0976 111.774 44.171 111.774 41.48H107.774C107.774 44.8157 108.589 47.7157 110.419 49.9777L113.529 47.4623ZM111.774 41.48V40.68H107.774V41.48H111.774ZM111.774 40.68C111.774 38.0029 112.405 36.0977 113.462 34.7608L110.325 32.2792C108.556 34.5156 107.774 37.3838 107.774 40.68H111.774ZM113.471 34.7495C114.438 33.509 115.858 32.8 118.054 32.8V28.8C114.863 28.8 112.176 29.9043 110.316 32.2905L113.471 34.7495ZM118.054 32.8C119.214 32.8 120.21 33.0342 121.079 33.4689L122.868 29.8911C121.391 29.1525 119.774 28.8 118.054 28.8V32.8ZM121.095 33.4768C121.949 33.8942 122.607 34.4958 123.102 35.3148L126.525 33.2452C125.634 31.7709 124.399 30.6392 122.852 29.8832L121.095 33.4768ZM123.12 35.3435C123.594 36.0981 123.894 37.1323 123.894 38.56H127.894C127.894 36.5744 127.474 34.7552 126.508 33.2165L123.12 35.3435ZM123.894 38.56C123.894 39.2269 123.827 39.9467 123.686 40.7222L127.622 41.4378C127.801 40.4533 127.894 39.4931 127.894 38.56H123.894ZM125.654 39.08H113.374V43.08H125.654V39.08ZM111.374 41.08V42.28H115.374V41.08H111.374ZM111.374 42.28C111.374 45.1828 111.797 47.7155 113.012 49.4621L116.296 47.1779C115.804 46.4712 115.374 44.9772 115.374 42.28H111.374ZM113.041 49.5027C114.409 51.3684 116.525 52.12 118.894 52.12V48.12C117.369 48.12 116.659 47.6716 116.267 47.1373L113.041 49.5027ZM118.894 52.12C120.482 52.12 121.962 51.6985 123.183 50.7217L120.685 47.5983C120.306 47.9015 119.759 48.12 118.894 48.12V52.12ZM123.158 50.7414C124.546 49.667 125.238 47.9899 125.546 46.1742L121.602 45.5058C121.376 46.8368 120.975 47.373 120.71 47.5786L123.158 50.7414ZM123.029 47.7644L125.149 48.3644L126.239 44.5156L124.119 43.9156L123.029 47.7644ZM118.054 30.08C115.883 30.08 114.037 30.9593 112.853 32.7966L116.215 34.9634C116.578 34.4007 117.078 34.08 118.054 34.08V30.08ZM112.853 32.7966C111.754 34.5019 111.374 36.9671 111.374 39.8H115.374C115.374 37.1396 115.767 35.6581 116.215 34.9634L112.853 32.7966ZM113.374 41.8H122.374V37.8H113.374V41.8ZM124.374 39.8V39.68H120.374V39.8H124.374ZM124.351 39.9841C124.41 39.5958 124.456 39.2163 124.487 38.8461L120.501 38.5139C120.478 38.7837 120.444 39.0709 120.397 39.3759L124.351 39.9841ZM124.488 38.8334C124.518 38.4501 124.534 38.0905 124.534 37.76H120.534C120.534 37.9629 120.524 38.2166 120.5 38.5266L124.488 38.8334ZM124.534 37.76C124.534 35.565 124.094 33.5 122.752 32.0706L119.836 34.8094C120.147 35.14 120.534 35.955 120.534 37.76H124.534ZM122.772 32.0925C121.531 30.7315 119.895 30.08 118.054 30.08V34.08C118.879 34.08 119.404 34.3352 119.816 34.7875L122.772 32.0925ZM132.39 32.24H130.39V34.0337L132.173 34.2282L132.39 32.24ZM132.39 31.2V29.2H130.39V31.2H132.39ZM138.55 31.2H140.55V29.2H138.55V31.2ZM138.55 34.4H136.55V41.2506L140.235 35.4761L138.55 34.4ZM141.23 31.68L142.217 33.4194L142.224 33.4151L142.232 33.4109L141.23 31.68ZM149.91 33.4L148.289 34.5719L148.295 34.58L148.301 34.5881L149.91 33.4ZM149.63 48.72L151.175 49.989L149.63 48.72ZM138.75 49.68L140.069 48.1768L136.75 45.264V49.68H138.75ZM138.87 57.88L140.708 57.0922L140.685 57.0381L140.658 56.9856L138.87 57.88ZM139.63 58.24L139.381 60.2246L139.439 60.2317L139.496 60.2356L139.63 58.24ZM142.63 58.44H144.63V56.5689L142.763 56.4444L142.63 58.44ZM142.63 59.52V61.52H144.63V59.52H142.63ZM132.39 59.52H130.39V61.52H132.39V59.52ZM132.39 58.44L132.208 56.4482L130.39 56.6136V58.44H132.39ZM134.59 58.24L134.771 60.2318L134.804 60.2287L134.838 60.2246L134.59 58.24ZM135.35 57.88L133.561 56.9856L133.534 57.0381L133.511 57.0922L135.35 57.88ZM135.35 32.8L133.561 33.6944V33.6944L135.35 32.8ZM134.59 32.48L134.838 30.4954L134.822 30.4935L134.806 30.4918L134.59 32.48ZM141.47 33.04L140.455 31.3161L140.444 31.3228L140.433 31.3296L141.47 33.04ZM138.75 36.28L137.015 35.2847L136.75 35.747V36.28H138.75ZM138.75 47.72H136.75V48.3715L137.133 48.898L138.75 47.72ZM147.07 48.12L148.791 49.1386L148.795 49.1311L148.8 49.1234L147.07 48.12ZM147.15 34L145.445 35.046L145.45 35.0548L145.456 35.0635L147.15 34ZM134.39 32.24V31.2H130.39V32.24H134.39ZM132.39 33.2H138.55V29.2H132.39V33.2ZM136.55 31.2V34.4H140.55V31.2H136.55ZM140.235 35.4761C140.913 34.4151 141.588 33.7763 142.217 33.4194L140.242 29.9406C138.898 30.7037 137.786 31.8783 136.864 33.3239L140.235 35.4761ZM142.232 33.4109C142.926 33.009 143.697 32.8 144.59 32.8V28.8C143.028 28.8 141.56 29.1776 140.227 29.9491L142.232 33.4109ZM144.59 32.8C146.295 32.8 147.442 33.4011 148.289 34.5719L151.53 32.2281C149.87 29.9323 147.47 28.8 144.59 28.8V32.8ZM148.301 34.5881C149.235 35.854 149.83 37.8034 149.83 40.68H153.83C153.83 37.3166 153.144 34.4127 151.518 32.2119L148.301 34.5881ZM149.83 40.68V41.48H153.83V40.68H149.83ZM149.83 41.48C149.83 44.2044 149.175 46.1213 148.084 47.451L151.175 49.989C153.017 47.7453 153.83 44.8356 153.83 41.48H149.83ZM148.084 47.451C147.049 48.7109 145.612 49.4 143.51 49.4V53.4C146.634 53.4 149.276 52.3024 151.175 49.989L148.084 47.451ZM143.51 49.4C142.089 49.4 140.982 48.9785 140.069 48.1768L137.43 51.1833C139.13 52.6748 141.196 53.4 143.51 53.4V49.4ZM136.75 49.68V56.28H140.75V49.68H136.75ZM136.75 56.28C136.75 56.7541 136.76 57.1708 136.785 57.5096C136.798 57.6778 136.816 57.8575 136.846 58.0311C136.869 58.1621 136.925 58.4632 137.081 58.7744L140.658 56.9856C140.726 57.1215 140.758 57.229 140.769 57.2698C140.783 57.3183 140.788 57.3478 140.788 57.3489C140.788 57.3492 140.781 57.3089 140.774 57.2104C140.759 57.0159 140.75 56.7125 140.75 56.28H136.75ZM137.031 58.6678C137.326 59.355 137.864 59.7282 138.263 59.9175C138.656 60.1034 139.057 60.184 139.381 60.2246L139.878 56.2554C139.775 56.2426 139.837 56.2366 139.976 56.3025C140.122 56.3718 140.493 56.5917 140.708 57.0922L137.031 58.6678ZM139.496 60.2356L142.496 60.4356L142.763 56.4444L139.763 56.2444L139.496 60.2356ZM140.63 58.44V59.52H144.63V58.44H140.63ZM142.63 57.52H132.39V61.52H142.63V57.52ZM134.39 59.52V58.44H130.39V59.52H134.39ZM132.571 60.4318L134.771 60.2318L134.408 56.2482L132.208 56.4482L132.571 60.4318ZM134.838 60.2246C135.162 60.184 135.563 60.1034 135.956 59.9175C136.355 59.7282 136.893 59.355 137.188 58.6678L133.511 57.0922C133.726 56.5917 134.097 56.3718 134.243 56.3025C134.382 56.2366 134.444 56.2426 134.341 56.2554L134.838 60.2246ZM137.138 58.7744C137.294 58.4632 137.35 58.1621 137.373 58.0311C137.403 57.8575 137.421 57.6778 137.434 57.5096C137.459 57.1708 137.47 56.7541 137.47 56.28H133.47C133.47 56.7125 133.46 57.0159 133.445 57.2104C133.438 57.3089 133.431 57.3492 133.431 57.3489C133.432 57.3478 133.437 57.3183 133.45 57.2698C133.461 57.229 133.493 57.1215 133.561 56.9856L137.138 58.7744ZM137.47 56.28V34.44H133.47V56.28H137.47ZM137.47 34.44C137.47 33.9533 137.459 33.5279 137.434 33.184C137.422 33.0134 137.403 32.8321 137.374 32.6577C137.352 32.5288 137.297 32.2218 137.138 31.9056L133.561 33.6944C133.491 33.5547 133.459 33.4443 133.448 33.4044C133.441 33.3787 133.437 33.3592 133.434 33.3476C133.432 33.3358 133.43 33.3288 133.43 33.3273C133.43 33.3254 133.432 33.3365 133.435 33.364C133.438 33.3908 133.441 33.4276 133.445 33.476C133.46 33.6787 133.47 33.9934 133.47 34.44H137.47ZM137.138 31.9056C136.796 31.2211 136.216 30.9002 135.876 30.7567C135.513 30.6041 135.143 30.5336 134.838 30.4954L134.341 34.4646C134.463 34.4798 134.432 34.4892 134.323 34.4433C134.236 34.4065 133.823 34.2189 133.561 33.6944L137.138 31.9056ZM134.806 30.4918L132.606 30.2518L132.173 34.2282L134.373 34.4682L134.806 30.4918ZM144.07 30.24C142.801 30.24 141.587 30.6505 140.455 31.3161L142.484 34.7639C143.165 34.3629 143.684 34.24 144.07 34.24V30.24ZM140.433 31.3296C139.113 32.1298 137.999 33.5696 137.015 35.2847L140.484 37.2753C141.367 35.7371 142.067 35.0168 142.506 34.7504L140.433 31.3296ZM136.75 36.28V47.72H140.75V36.28H136.75ZM137.133 48.898C138.644 50.9706 140.756 52.08 143.31 52.08V48.08C142.076 48.08 141.149 47.6161 140.366 46.542L137.133 48.898ZM143.31 52.08C145.63 52.08 147.6 51.1498 148.791 49.1386L145.348 47.1014C144.992 47.7035 144.455 48.08 143.31 48.08V52.08ZM148.8 49.1234C149.816 47.3717 150.23 45.166 150.23 42.68H146.23C146.23 44.7806 145.87 46.2016 145.339 47.1166L148.8 49.1234ZM150.23 42.68V39.48H146.23V42.68H150.23ZM150.23 39.48C150.23 36.8702 149.871 34.5731 148.843 32.9365L145.456 35.0635C145.868 35.7203 146.23 37.0765 146.23 39.48H150.23ZM148.854 32.954C147.785 31.2114 146.125 30.24 144.07 30.24V34.24C144.68 34.24 145.074 34.442 145.445 35.046L148.854 32.954ZM172.073 46.92L174.009 47.4208L174.505 45.5036L172.593 44.9888L172.073 46.92ZM170.193 50.32L171.482 51.8486L170.193 50.32ZM163.793 50.56L162.61 52.1728L162.628 52.1858L162.646 52.1985L163.793 50.56ZM162.033 48.28L163.89 47.5372L162.033 48.28ZM161.353 32.8L159.455 33.4325L159.5 33.5673L159.564 33.6944L161.353 32.8ZM160.593 32.48L160.826 30.4937L160.8 30.4906L160.774 30.4882L160.593 32.48ZM158.393 32.28H156.393V34.1064L158.212 34.2718L158.393 32.28ZM158.393 31.2V29.2H156.393V31.2H158.393ZM161.473 31.2V33.2H163.473V31.2H161.473ZM161.473 25.96L161.067 24.0016L159.473 24.3321V25.96H161.473ZM164.753 25.28H166.753V22.8228L164.347 23.3216L164.753 25.28ZM164.753 31.2H162.753V33.2H164.753V31.2ZM171.273 31.2H173.273V29.2H171.273V31.2ZM171.273 32.48V34.48H173.273V32.48H171.273ZM164.753 32.48V30.48H162.753V32.48H164.753ZM165.433 49.16L163.801 50.316L163.816 50.3382L163.833 50.36L165.433 49.16ZM169.073 49.24L167.455 48.0637L167.437 48.0882L167.42 48.1133L169.073 49.24ZM169.993 46.36L170.513 44.4288L168.326 43.8401L168.012 46.0827L169.993 46.36ZM170.136 46.4192C169.797 47.7309 169.329 48.4315 168.903 48.7914L171.482 51.8486C172.762 50.7685 173.548 49.2025 174.009 47.4208L170.136 46.4192ZM168.903 48.7914C168.477 49.1504 167.87 49.4 166.913 49.4V53.4C168.622 53.4 170.201 52.9296 171.482 51.8486L168.903 48.7914ZM166.913 49.4C165.917 49.4 165.313 49.1829 164.94 48.9215L162.646 52.1985C163.872 53.0571 165.349 53.4 166.913 53.4V49.4ZM164.975 48.9472C164.481 48.5849 164.126 48.1281 163.89 47.5372L160.176 49.0228C160.686 50.2986 161.504 51.3618 162.61 52.1728L164.975 48.9472ZM163.89 47.5372C163.612 46.8421 163.473 46.121 163.473 45.36H159.473C159.473 46.6257 159.707 47.8513 160.176 49.0228L163.89 47.5372ZM163.473 45.36V34.44H159.473V45.36H163.473ZM163.473 34.44C163.473 33.9533 163.462 33.5279 163.437 33.184C163.425 33.0134 163.407 32.8321 163.377 32.6577C163.355 32.5288 163.3 32.2218 163.142 31.9056L159.564 33.6944C159.494 33.5547 159.462 33.4443 159.451 33.4044C159.444 33.3787 159.44 33.3592 159.437 33.3476C159.435 33.3358 159.434 33.3288 159.433 33.3273C159.433 33.3254 159.435 33.3365 159.438 33.364C159.441 33.3908 159.444 33.4276 159.448 33.476C159.463 33.6787 159.473 33.9934 159.473 34.44H163.473ZM163.25 32.1675C162.953 31.2777 162.23 30.8964 161.899 30.7567C161.522 30.5983 161.134 30.5299 160.826 30.4937L160.359 34.4663C160.505 34.4834 160.469 34.495 160.347 34.4433C160.268 34.4103 159.699 34.1623 159.455 33.4325L163.25 32.1675ZM160.774 30.4882L158.574 30.2882L158.212 34.2718L160.412 34.4718L160.774 30.4882ZM160.393 32.28V31.2H156.393V32.28H160.393ZM158.393 33.2H161.473V29.2H158.393V33.2ZM163.473 31.2V25.96H159.473V31.2H163.473ZM161.879 27.9184L165.159 27.2384L164.347 23.3216L161.067 24.0016L161.879 27.9184ZM162.753 25.28V31.2H166.753V25.28H162.753ZM164.753 33.2H171.273V29.2H164.753V33.2ZM169.273 31.2V32.48H173.273V31.2H169.273ZM171.273 30.48H164.753V34.48H171.273V30.48ZM162.753 32.48V45.68H166.753V32.48H162.753ZM162.753 45.68C162.753 47.3943 162.956 49.1232 163.801 50.316L167.065 48.004C167.069 48.0101 167.044 47.9759 167.006 47.8757C166.969 47.7762 166.925 47.6302 166.886 47.4264C166.805 47.0132 166.753 46.4403 166.753 45.68H162.753ZM163.833 50.36C164.675 51.4832 165.885 52.12 167.313 52.12V48.12C167.21 48.12 167.177 48.1012 167.172 48.0988C167.165 48.0953 167.115 48.0697 167.033 47.96L163.833 50.36ZM167.313 52.12C168.678 52.12 169.915 51.5547 170.725 50.3667L167.42 48.1133C167.405 48.1353 167.4 48.1385 167.406 48.1324C167.414 48.1257 167.426 48.1175 167.438 48.1111C167.45 48.1051 167.452 48.1065 167.436 48.11C167.419 48.1136 167.38 48.12 167.313 48.12V52.12ZM170.69 50.4163C171.412 49.4232 171.774 48.0619 171.973 46.6373L168.012 46.0827C167.838 47.3248 167.586 47.8835 167.455 48.0637L170.69 50.4163ZM169.473 48.2912L171.553 48.8512L172.593 44.9888L170.513 44.4288L169.473 48.2912Z" fill="white"/>
    <defs>
    <linearGradient id="paint0_linear_13_1124" x1="127.78" y1="110.48" x2="77.3593" y2="-25.1244" gradientUnits="userSpaceOnUse">
    <stop stop-color="#341198"/>
    <stop offset="1" stop-color="#E200ED"/>
    </linearGradient>
    <linearGradient id="paint1_linear_13_1124" x1="103" y1="12" x2="103" y2="60" gradientUnits="userSpaceOnUse">
    <stop stop-color="#FAFF01"/>
    <stop offset="1" stop-color="#FF6B00"/>
    </linearGradient>
    </defs>
    </svg>
    