    
<svg width="44" height="46" viewBox="0 0 44 46" fill="none" xmlns="http://www.w3.org/2000/svg">
    <g clip-path="url(#clip0_16_65)">
    <path d="M24.7733 41.6743C22.4261 42.0327 20.1358 41.9422 17.9901 41.4799C17.3016 41.3319 16.6289 41.15 15.968 40.9171C14.6198 40.4631 13.3463 39.847 12.1801 39.1098L12.1376 39.077C11.6321 38.7545 11.1382 38.4053 10.6793 38.0299L10.63 37.9926C9.97795 37.4608 9.36828 36.8831 8.8078 36.2641C8.79148 36.2435 8.77088 36.23 8.76013 36.2082C7.12805 34.3885 5.92076 32.1945 5.29744 29.7359L5.28707 29.6898C5.26242 29.5802 5.23648 29.4649 5.21183 29.3554C5.17291 29.1824 5.1327 29.0036 5.10622 28.8339C5.08546 28.7417 5.07585 28.6469 5.05509 28.5546C5.03693 28.4739 5.02861 28.3849 5.01602 28.3029C4.99396 28.2049 4.98564 28.1159 4.97473 28.0154C4.96176 27.9577 4.96122 27.9033 4.95381 27.8444C4.85314 27.0069 4.82317 26.1716 4.86522 25.3443C4.89028 24.8056 4.94447 24.2663 5.02353 23.7336C5.98871 17.6222 10.7595 12.0964 17.7017 10.1893C18.9416 9.84976 20.1865 9.63634 21.4197 9.55277C27.6453 9.11537 33.6111 11.8138 36.9929 16.6262C37.7557 17.7026 38.3795 18.8889 38.8453 20.1532L38.8931 20.2878C38.8931 20.2878 38.9185 20.3487 38.925 20.3776C39.1043 20.8885 39.257 21.4114 39.3832 21.9464L39.4079 22.056C39.4299 22.154 39.4533 22.2578 39.4753 22.3558C40.4045 26.9022 39.158 31.3989 36.4341 34.9195C36.3845 34.9852 36.3448 35.0426 36.3165 35.0731C36.2798 35.1178 36.267 35.1388 36.267 35.1388C33.5616 38.534 29.5122 40.9474 24.7788 41.673L24.7733 41.6743Z" fill="url(#paint0_linear_16_65)"/>
    <path d="M5.46142 30.3351L5.28624 29.7384L5.27586 29.6923L4.35714 26.5187L4.34157 26.4495L3.93207 25.0453L3.92818 25.0281L3.66235 24.1065L3.64808 24.0431L5.00676 23.7374L24.0635 19.5107L36.9954 16.6378L38.5713 16.2833L38.9027 18.5107L39.4753 22.3558L38.5732 22.5588L38.5313 22.5803L29.3059 24.7406L7.36191 29.8894L6.31765 30.1364L5.46013 30.3293L5.46142 30.3351Z" fill="url(#paint1_linear_16_65)"/>
    <path d="M23.6577 36.7155C21.2472 37.1306 18.8941 37.0724 16.6995 36.6271C16.6995 36.6271 16.6884 36.6296 16.6759 36.6263C16.6026 36.6125 16.3647 36.5691 16.0166 36.4779C15.8451 36.4437 15.6766 36.3968 15.5081 36.3499C13.9002 35.912 12.3956 35.257 11.0256 34.4203C10.8304 34.3067 10.6395 34.1861 10.4541 34.0642C8.85056 32.9953 7.45347 31.674 6.32891 30.1339C5.80466 29.4159 5.34074 28.6539 4.947 27.8399C4.83943 27.6218 4.73612 27.3967 4.63282 27.1715C4.54974 26.9843 4.47223 26.7957 4.39769 26.5944L4.36969 26.522C4.11379 25.8526 3.90412 25.1546 3.74198 24.4339C3.71733 24.3243 3.69139 24.209 3.66674 24.0995L3.65247 24.036C3.36974 22.5973 3.3077 21.1513 3.42827 19.7369C3.43817 19.5469 3.45494 19.3614 3.473 19.1817C3.47636 19.1446 3.47971 19.1075 3.48177 19.0646C3.6902 17.4427 4.15195 15.8546 4.83417 14.3623C4.8453 14.3598 4.84141 14.3425 4.84568 14.3355C5.38413 13.1664 6.06195 12.0446 6.86335 11.0041C9.13163 8.05856 12.4116 5.70927 16.4142 4.51802C19.4134 3.6252 22.4604 3.49098 25.3125 4.02457C25.3125 4.02457 25.4218 4.04238 25.6139 4.09004C30.285 5.03825 34.3722 7.75952 36.7625 11.7531C36.7651 11.7646 36.7677 11.7761 36.7814 11.7852C36.9276 12.0188 37.0652 12.2665 37.1904 12.5109C37.2618 12.6463 37.3263 12.7772 37.3896 12.9023C37.5079 13.1422 37.6125 13.3731 37.7128 13.611C37.7731 13.7489 37.8291 13.8938 37.8838 14.033C38.1681 14.7505 38.4006 15.4978 38.5744 16.2705C38.7482 17.0431 38.8495 17.7533 38.9045 18.4921C38.9529 19.1234 38.964 19.7448 38.928 20.3648C38.9345 20.3936 38.9397 20.4167 38.9282 20.4435C38.9175 20.6821 38.9 20.9163 38.8726 21.1587C38.8752 21.1702 38.8778 21.1818 38.8706 21.2016C38.8235 21.6423 38.7609 22.0925 38.6834 22.5279C37.3666 29.5726 31.4234 35.3743 23.6564 36.7097L23.6577 36.7155Z" fill="url(#paint2_linear_16_65)"/>
    <g style="mix-blend-mode:multiply" opacity="0.2">
    <path d="M35.7533 27.5246C34.9842 27.5643 32.1862 26.6732 29.3116 24.7393C27.4214 23.4623 25.4951 21.7391 24.0679 19.5037C23.4639 18.5613 22.9433 17.5214 22.5532 16.3855C21.6165 13.6521 21.3385 11.3763 21.4141 9.55402C21.5688 6.13288 23.0169 4.27446 23.8236 4.14145C23.8236 4.14145 26.9728 4.56577 30.3783 6.25912C32.7046 7.41987 35.1576 9.17 36.7706 11.7633C36.7732 11.7749 36.7758 11.7864 36.7895 11.7954C36.9357 12.0291 37.0733 12.2768 37.1985 12.5212C37.2471 12.6072 37.297 12.699 37.3413 12.792C37.3629 12.8356 37.3831 12.8735 37.399 12.9183C37.5174 13.1583 37.622 13.3892 37.7223 13.6271C37.7825 13.765 37.8385 13.9099 37.8933 14.049C38.1797 14.8024 38.3968 15.5592 38.5517 16.2998C38.835 17.6112 38.9177 18.889 38.8631 20.0765C38.8696 20.1053 38.865 20.1366 38.8603 20.168C38.8192 21.0253 38.7107 21.8433 38.5464 22.5951C38.4743 22.9506 38.3871 23.2913 38.2918 23.6216C38.1862 23.9846 38.0469 24.3794 37.8879 24.7908C37.2039 26.4834 36.3305 27.5159 35.7641 27.5464L35.7533 27.5246Z" fill="#F42774"/>
    </g>
    <g style="mix-blend-mode:soft-light">
    <path d="M10.385 7.831C9.50713 8.79178 16.2383 18.2725 18.6654 22.9241C21.1153 27.6251 21.4516 35.673 22.1444 36.2562C22.8428 36.8381 30.6853 34.6679 33.9929 30.9857C37.3994 27.1965 33.1233 28.1343 30.4633 25.516C27.8415 22.9376 21.7357 11.6079 21.4107 8.96706C21.0789 6.32174 21.9581 5.18498 21.6189 4.24961C21.2742 3.3155 14.6895 3.11885 10.3905 7.82975L10.385 7.831Z" fill="white"/>
    </g>
    <path d="M22.3579 30.9379C16.4221 32.0916 10.8316 28.9029 9.25499 23.7933C9.17564 23.5447 9.10873 23.2992 9.05165 23.0455C7.80375 17.4986 11.5413 11.6964 17.6491 10.0073C24.0439 8.2415 30.5593 11.6402 31.9174 17.6772C31.9797 17.954 32.0253 18.2345 32.064 18.5105C32.855 24.2632 28.5567 29.7312 22.3566 30.9322L22.3579 30.9379Z" fill="url(#paint3_linear_16_65)"/>
    <path d="M22.3579 30.9379C16.4221 32.0916 10.8315 28.9029 9.25497 23.7933C8.48582 18.5022 12.1621 13.156 18.0032 11.5814C24.109 9.93517 30.3233 12.9836 32.0639 18.5105C32.855 24.2632 28.5567 29.7312 22.3566 30.9322L22.3579 30.9379Z" fill="#FF6B04"/>
    <path d="M18.6039 26.8635C18.6039 26.8635 15.0591 28.5818 13.7012 28.2148C13.5589 28.1802 13.4336 28.1175 13.3421 28.023C13.2301 27.9149 12.8768 26.5527 12.834 26.3624C12.6275 25.5486 13.2475 25.288 13.574 24.1907C13.6327 23.9837 13.6953 23.7939 13.7549 23.6169C13.9138 23.1269 14.0383 22.796 14.0383 22.796C14.0383 22.796 12.8215 21.6522 11.9711 20.4986C11.7253 20.1602 11.5074 19.8154 11.3598 19.4973C11.2268 19.2183 10.7857 17.4396 10.8159 17.3661C11.2711 16.1127 16.1783 17.0442 16.3977 17.0312L16.4033 17.0299C16.4033 17.0299 18.6543 11.9014 20.2264 11.79C21.8747 11.6797 23.2452 17.0173 23.2452 17.0173C23.2452 17.0173 28.4547 16.3541 29.9012 17.5311C30.0875 17.683 30.1503 18.6381 30.1918 18.8226C30.3047 19.3243 29.8017 20.0008 29.0668 20.6871C27.4397 22.1921 24.749 23.6758 24.749 23.6758C24.749 23.6758 24.8798 24.3612 24.9793 25.2717C25.0962 26.3116 25.1739 27.645 24.9731 28.5989C24.8547 29.1646 24.6371 29.6013 24.274 29.7557C23.2935 30.1822 21.0266 28.6871 19.6979 27.6957C19.0588 27.2215 18.6193 26.854 18.6193 26.854L18.6039 26.8635Z" fill="url(#paint4_linear_16_65)"/>
    <path d="M21.8786 28.0532C21.8112 28.0138 21.734 27.9827 21.6654 27.9376C21.1604 27.6696 20.6494 27.3484 20.1855 27.0287C19.904 26.8436 19.6435 26.6478 19.4118 26.4758C18.7728 26.0017 18.3388 25.6328 18.3388 25.6328C18.3388 25.6328 17.3687 26.1055 16.254 26.5077C15.2314 26.8771 14.0892 27.1825 13.4357 27.0085C13.2934 26.9739 13.1737 26.9099 13.0767 26.8167C12.9646 26.7086 12.8893 26.5559 12.8409 26.3669C12.6358 25.5589 12.9778 24.0886 13.3085 22.9844C13.3672 22.7773 13.4285 22.5818 13.4839 22.4118C13.647 21.9147 13.7659 21.5851 13.7659 21.5851C13.7659 21.5851 12.5505 20.4471 11.7001 19.2935C11.4543 18.9551 11.2321 18.6174 11.0887 18.2922C10.9557 18.0132 10.8738 17.7529 10.8746 17.5226C10.872 17.511 10.8707 17.5053 10.8694 17.4995C10.8709 17.4022 10.8819 17.321 10.9109 17.2418C11.2007 16.4497 13.1194 16.0846 14.5465 15.9271C14.9453 15.8798 15.3022 15.854 15.5717 15.8298C15.8661 15.812 16.0632 15.804 16.1035 15.801L16.1146 15.7985C16.1146 15.7985 17.3879 12.8769 18.6958 11.3832C18.6958 11.3832 18.7099 11.3679 18.7154 11.3667C19.022 11.013 19.3313 10.7495 19.6288 10.616L19.64 10.6135C19.7419 10.5724 19.8366 10.5511 19.9338 10.5413C20.0949 10.5293 20.2566 10.5717 20.4106 10.6582C21.0365 10.9959 21.6167 12.0406 22.055 13.1051C22.6088 14.4223 22.9513 15.7628 22.9513 15.7628C22.9513 15.7628 23.5324 15.7714 24.3596 15.8337C26.2994 15.9788 29.6265 16.3874 29.8846 17.5348C29.9988 18.0422 29.4957 18.7188 28.7622 19.4108C28.278 19.859 27.6966 20.3169 27.1202 20.7192C25.7692 21.6834 24.444 22.4238 24.444 22.4238C24.444 22.4238 24.5748 23.1092 24.6743 24.0197C24.7926 25.0654 24.8745 26.3918 24.6695 27.3526C24.5468 27.9254 24.3334 28.3551 23.9703 28.5095C23.4912 28.7202 22.7056 28.479 21.8661 28.0499L21.8786 28.0532Z" fill="url(#paint5_linear_16_65)"/>
    <path d="M12.4182 6.25904C14.3326 5.27709 12.886 10.8608 9.76429 8.14037C9.76429 8.14037 10.8913 7.03874 12.4182 6.25904V6.25904Z" fill="white"/>
    <g style="mix-blend-mode:soft-light">
    <path d="M39.4066 22.0502C39.2191 20.6446 38.0607 29.5376 33.1038 32.6761C28.3305 35.6945 30.8845 39.3241 30.8845 39.3241C30.8845 39.3241 41.5099 33.5837 39.4066 22.0502V22.0502Z" fill="white"/>
    </g>
    <g style="mix-blend-mode:multiply" opacity="0.7">
    <path d="M17.9901 41.4799C17.5259 41.445 16.8133 41.2418 15.968 40.9171C14.7282 40.4509 13.229 39.7159 11.8568 38.8433L11.8418 38.8285C11.4449 38.5725 11.0578 38.3082 10.6904 38.0274L10.641 37.9901C9.92817 37.4477 9.29363 36.8635 8.81889 36.2616C8.80257 36.241 8.78197 36.2275 8.77121 36.2057C7.21511 34.2295 6.17584 31.8463 5.60622 30.3025C5.34941 29.6031 5.18422 29.0768 5.11174 28.8327C5.08839 28.7289 5.06558 28.6795 5.06558 28.6795C5.06504 28.6251 5.05596 28.5847 5.06061 28.5534C5.05877 28.4932 5.06213 28.4561 5.0638 28.4376C5.12474 28.2664 5.43442 29.0448 6.19776 30.1755C7.52633 32.1544 10.2469 35.2497 15.5204 36.3532C15.5204 36.3532 18.5258 40.2205 18.5785 41.2869C18.5895 41.4662 18.3818 41.5311 18.0107 41.4934L17.9901 41.4799Z" fill="#DE376D"/>
    </g>
    <path d="M38.8743 21.1402C38.8743 21.1402 38.9308 31.1168 28.5914 35.8661C19.0106 40.2689 9.52886 33.6181 9.52886 33.6181C9.52886 33.6181 17.7829 38.1402 27.2932 35.1404C37.5298 31.9106 38.8743 21.1402 38.8743 21.1402Z" fill="#FFE016"/>
    <path d="M28.3914 35.7051C29.1674 34.8641 23.8592 34.3864 23.3421 36.4049C23.0896 37.3885 26.9055 37.3176 28.3914 35.7051V35.7051Z" fill="white"/>
    <g style="mix-blend-mode:soft-light" opacity="0.5">
    <path d="M16.669 36.6218C16.5957 36.608 16.3578 36.5646 16.0096 36.4733C15.0107 36.2195 13.0725 35.6136 11.02 34.4216C9.34422 33.4477 7.59562 32.0721 6.21618 30.1532C5.75334 29.5001 5.32467 28.7908 4.95542 28.0076C4.87493 27.8319 4.79574 27.6619 4.72509 27.4779C4.72509 27.4779 4.7212 27.4606 4.7199 27.4548C4.60493 27.1778 4.49292 26.888 4.39633 26.5886C4.37482 26.545 4.36314 26.4931 4.3472 26.4483L4.30882 26.3297C4.16996 25.8945 4.04223 25.4567 3.94327 25.0428L3.93937 25.0255C3.85041 24.6821 3.7876 24.3509 3.71496 24.028C3.365 22.1864 3.33773 20.5569 3.47981 19.1862C3.48316 19.1491 3.48652 19.112 3.48857 19.0691C3.77496 16.3634 4.67402 14.6649 4.84098 14.3668C4.85211 14.3643 4.84822 14.347 4.85249 14.34C4.86103 14.326 4.86531 14.319 4.86531 14.319C5.06887 13.8976 4.13652 16.3063 4.02754 19.6445C3.98552 20.914 4.07503 22.378 4.41528 23.8644C4.52554 24.3545 4.6718 24.8486 4.84591 25.3365C4.89245 25.4654 4.94029 25.6 4.9911 25.7218C5.61008 27.303 6.43607 28.6862 7.36624 29.8823C10.9795 34.5276 16.2235 36.4616 16.669 36.6218V36.6218Z" fill="white"/>
    </g>
    <g style="mix-blend-mode:soft-light" opacity="0.5">
    <path d="M21.8786 28.0532C21.8112 28.0138 21.734 27.9827 21.6654 27.9376C21.1605 27.6696 20.6495 27.3484 20.1856 27.0287C19.7822 25.4959 19.2826 24.003 18.6308 22.7442C17.6934 20.9439 16.092 18.4024 14.5521 15.9259C14.9509 15.8786 15.3078 15.8528 15.5773 15.8285C15.8717 15.8108 16.0688 15.8028 16.1091 15.7998L16.1202 15.7973C16.1202 15.7973 17.3935 12.8756 18.7014 11.3819C18.7014 11.3819 18.7155 11.3667 18.721 11.3654C19.0276 11.0117 19.3369 10.7483 19.6344 10.6147L19.6456 10.6122C19.7475 10.5711 19.8422 10.5498 19.9394 10.54C20.1005 10.528 20.2622 10.5704 20.4162 10.6569C21.0421 10.9947 21.6223 12.0394 22.0606 13.1039C22.6144 14.4211 22.9569 15.7615 22.9569 15.7615C22.9569 15.7615 23.538 15.7701 24.3652 15.8324C25.2273 17.4801 26.1911 19.1896 27.1313 20.7167C25.7804 21.6809 24.4552 22.4213 24.4552 22.4213C24.4552 22.4213 24.586 23.1067 24.6855 24.0172C24.8037 25.0629 24.8857 26.3893 24.6806 27.3501C24.5579 27.9229 24.3445 28.3526 23.9815 28.507C23.5024 28.7177 22.7168 28.4765 21.8773 28.0474L21.8786 28.0532Z" fill="white"/>
    </g>
    <path d="M10.3665 15.4197C10.3665 15.4197 6.74853 24.224 13.1262 29.0651C13.1262 29.0651 5.42681 23.9398 10.3665 15.4197Z" fill="#FFE016"/>
    <g style="mix-blend-mode:multiply" opacity="0.5">
    <path d="M21.4182 9.46828C19.5417 10.3327 26.2734 10.5326 29.7815 16.7644C33.3381 23.0823 25.5988 29.8454 25.5988 29.8454C25.5988 29.8454 33.9987 26.7986 31.8924 17.4102C30.2411 10.0701 21.4169 9.46252 21.4169 9.46252L21.4182 9.46828Z" fill="#D42F55"/>
    </g>
    <g style="mix-blend-mode:multiply" opacity="0.7">
    <path d="M18.6039 26.8635L18.3263 25.6296C18.3263 25.6296 20.671 27.4707 22.4983 28.3378C24.3449 29.2127 23.4521 29.7952 23.4521 29.7952C23.4521 29.7952 20.8199 29.0425 18.6039 26.8635Z" fill="#DE376D"/>
    </g>
    <path d="M24.6027 23.3634C24.6027 23.3634 23.8268 22.5929 23.0645 23.7034C22.3052 24.8011 23.6914 27.088 24.3855 27.2348C25.0796 27.3815 24.8983 24.5993 24.6027 23.3634Z" fill="white"/>
    <g style="mix-blend-mode:soft-light">
    <path d="M6.94905 31.2786C6.47745 30.7426 7.18673 34.1814 8.19204 35.4515C9.20422 36.7262 11.0427 38.4752 11.9604 38.6019C12.8837 38.7274 12.2743 36.7987 11.7454 35.6698C11.2165 34.5409 9.17052 33.8199 6.94348 31.2799L6.94905 31.2786Z" fill="white"/>
    </g>
    <path d="M19.1071 37.3698C19.1886 36.146 16.652 35.0386 15.0377 36.262C13.4443 37.4746 18.9276 40.1605 19.1071 37.3698V37.3698Z" fill="url(#paint6_linear_16_65)"/>
    <g style="mix-blend-mode:multiply" opacity="0.7">
    <path d="M17.1655 35.9165C15.8267 36.1025 16.1366 37.8441 16.9707 38.3531C17.8104 38.8609 19.3601 38.4941 19.1012 37.2135C18.8479 35.9317 17.1655 35.9165 17.1655 35.9165V35.9165Z" fill="#DE376D"/>
    </g>
    <path d="M15.9504 35.8203C16.8255 36.0172 16.0836 37.2442 16.1778 37.8712C16.2734 38.504 14.7403 37.7221 14.77 36.9703C14.7985 36.2127 15.9504 35.8203 15.9504 35.8203Z" fill="#FF9500"/>
    <path d="M17.6861 33.6791C17.7552 32.452 15.9297 31.6451 14.9876 32.3719C14.0553 33.0905 17.5597 35.8217 17.6861 33.6791Z" fill="url(#paint7_linear_16_65)"/>
    <g style="mix-blend-mode:multiply" opacity="0.7">
    <path d="M17.6151 33.1559C17.2288 32.4008 16.0777 32.3811 15.8261 32.7709C15.5732 33.1549 16.311 34.5882 17.059 34.4805C17.8126 34.3715 17.7644 33.4555 17.6096 33.1572L17.6151 33.1559Z" fill="#DE376D"/>
    </g>
    <path d="M15.3321 32.1611C16.3434 32.1578 15.4761 32.8012 15.5048 33.449C15.5322 34.091 14.0536 32.4851 15.3321 32.1611Z" fill="#FF9500"/>
    <path d="M27.1158 10.9488C27.1897 9.95086 25.696 9.3964 24.9092 10.0338C24.128 10.6699 26.9873 12.6921 27.1158 10.9488Z" fill="url(#paint8_linear_16_65)"/>
    <g style="mix-blend-mode:multiply" opacity="0.7">
    <path d="M27.0627 10.5307C26.7543 9.93978 25.806 9.98954 25.5929 10.3162C25.3797 10.6428 25.9656 11.7649 26.5863 11.6374C27.2125 11.5087 27.181 10.7706 27.0572 10.5319L27.0627 10.5307Z" fill="#DE376D"/>
    </g>
    <path d="M25.1908 9.85534C26.0254 9.79478 25.3062 10.3685 25.3176 10.8869C25.3357 11.4099 24.13 10.1849 25.1908 9.85534Z" fill="#FF9500"/>
    <g style="mix-blend-mode:multiply" opacity="0.8">
    <path d="M36.3109 35.0744C36.352 35.0227 36.3874 34.9724 36.4285 34.9207C36.3789 34.9864 36.3379 35.038 36.3109 35.0744Z" fill="#D42F55"/>
    </g>
    <g style="mix-blend-mode:multiply" opacity="0.8">
    <path d="M36.4285 34.9207C36.7502 34.4788 37.4962 33.3478 38.144 31.5725C38.144 31.5725 38.1414 31.561 38.1512 31.5527C38.938 29.4069 39.581 26.3363 39.1969 22.4185C39.1963 22.3641 39.1889 22.3051 39.1828 22.252C39.1225 21.6719 39.039 21.0667 38.9307 20.455C38.9233 20.3961 38.9116 20.3442 38.8986 20.2866C38.8817 20.2116 38.8649 20.1366 38.848 20.0617C38.67 19.1143 38.4246 18.1276 38.1131 17.1072C38.0433 16.8746 37.9691 16.6489 37.8907 16.4303C36.0926 11.1162 33.0142 8.01655 30.3658 6.25586C28.2035 4.80985 26.3199 4.26436 25.6082 4.09129C30.2849 5.03825 34.3721 7.75952 36.7624 11.7531C36.765 11.7646 36.7676 11.7761 36.7813 11.7852C36.9275 12.0188 37.0651 12.2665 37.1903 12.511C37.2389 12.5969 37.2888 12.6887 37.3331 12.7817C37.3546 12.8253 37.3748 12.8632 37.3908 12.9081C37.5091 13.148 37.6137 13.3789 37.714 13.6168C37.7743 13.7547 37.8303 13.8996 37.885 14.0387C38.1693 14.7563 38.4017 15.5036 38.5756 16.2762C38.7494 17.0489 38.8507 17.7591 38.9057 18.4979L39.4783 22.343C40.4032 26.8964 39.1541 31.3816 36.4259 34.9092L36.4285 34.9207Z" fill="#D42F55"/>
    </g>
    <g style="mix-blend-mode:multiply" opacity="0.8">
    <path d="M12.1376 39.077C11.6322 38.7545 11.1382 38.4053 10.6794 38.0299L10.63 37.9926C9.91714 37.4502 9.28259 36.866 8.80786 36.2641C8.79153 36.2435 8.77094 36.23 8.76018 36.2082C7.12811 34.3885 5.92081 32.1945 5.2975 29.7359L5.28712 29.6898L4.36839 26.5162C4.1125 25.8468 3.90283 25.1489 3.74068 24.4281C3.71604 24.3186 3.69009 24.2033 3.66545 24.0937L3.65118 24.0303C3.36845 22.5915 3.3064 21.1455 3.42697 19.7312C3.43688 19.5411 3.45365 19.3556 3.47171 19.1759C3.47506 19.1388 3.47842 19.1017 3.48047 19.0588C3.76686 16.3532 4.66592 14.6546 4.83288 14.3566C4.84401 14.3541 4.84012 14.3368 4.84439 14.3298C5.38284 13.1606 6.06066 12.0389 6.86206 10.9984C6.76642 11.1713 4.61872 14.8349 4.02073 19.64C3.84821 21.0055 3.80614 22.4567 3.96857 23.9589C4.07567 25.007 4.28781 26.08 4.6178 27.1567C4.65229 27.258 4.67861 27.349 4.7118 27.4445C4.7144 27.4561 4.71699 27.4676 4.71699 27.4676C4.80283 27.7451 4.89423 28.0214 4.98861 28.2849L5.03088 28.4208C5.26228 29.0593 5.5052 29.671 5.75834 30.2501C7.91996 35.2038 10.8151 37.957 11.8157 38.8162L11.8307 38.831C11.9608 38.9411 12.0608 39.0216 12.117 39.0635L12.1376 39.077Z" fill="#D42F55"/>
    </g>
    <path d="M39.3031 25.3084C38.9378 23.2946 36.9012 28.1023 35.9961 30.0082C35.0927 31.8955 36.5934 34.4051 36.7353 34.464C36.8773 34.5229 40.047 29.3694 39.3031 25.3084V25.3084Z" fill="white"/>
    </g>
    <defs>
    <linearGradient id="paint0_linear_16_65" x1="5.23534" y1="29.5379" x2="39.3638" y2="21.8599" gradientUnits="userSpaceOnUse">
    <stop offset="0.05" stop-color="#FF3F00"/>
    <stop offset="0.72" stop-color="#FF6A03"/>
    <stop offset="1" stop-color="#FFFF04"/>
    </linearGradient>
    <linearGradient id="paint1_linear_16_65" x1="4.35856" y1="27.2272" x2="39.2666" y2="19.3738" gradientUnits="userSpaceOnUse">
    <stop offset="0.05" stop-color="#FF3F00"/>
    <stop offset="0.72" stop-color="#FF6A03"/>
    <stop offset="1" stop-color="#FFFF04"/>
    </linearGradient>
    <linearGradient id="paint2_linear_16_65" x1="3.69582" y1="24.2807" x2="38.6038" y2="16.4274" gradientUnits="userSpaceOnUse">
    <stop stop-color="#FFA900"/>
    <stop offset="1" stop-color="#FF9600"/>
    </linearGradient>
    <linearGradient id="paint3_linear_16_65" x1="9.027" y1="22.936" x2="31.9408" y2="17.781" gradientUnits="userSpaceOnUse">
    <stop stop-color="#FF7C04"/>
    <stop offset="1" stop-color="#D92000"/>
    </linearGradient>
    <linearGradient id="paint4_linear_16_65" x1="12.5584" y1="26.7757" x2="29.1707" y2="16.3758" gradientUnits="userSpaceOnUse">
    <stop stop-color="#EA5104"/>
    <stop offset="1" stop-color="#D92000"/>
    </linearGradient>
    <linearGradient id="paint5_linear_16_65" x1="12.3816" y1="25.7554" x2="28.6894" y2="15.5493" gradientUnits="userSpaceOnUse">
    <stop stop-color="#FF9600"/>
    <stop offset="1" stop-color="#FFA900"/>
    </linearGradient>
    <linearGradient id="paint6_linear_16_65" x1="14.9312" y1="37.6611" x2="19.0017" y2="36.7453" gradientUnits="userSpaceOnUse">
    <stop offset="0.04" stop-color="#EF6300"/>
    <stop offset="1" stop-color="#E13E00"/>
    </linearGradient>
    <linearGradient id="paint7_linear_16_65" x1="15.017" y1="33.595" x2="17.584" y2="33.0175" gradientUnits="userSpaceOnUse">
    <stop offset="0.04" stop-color="#EF6300"/>
    <stop offset="1" stop-color="#E13E00"/>
    </linearGradient>
    <linearGradient id="paint8_linear_16_65" x1="24.8937" y1="10.9507" x2="27.0534" y2="10.4878" gradientUnits="userSpaceOnUse">
    <stop offset="0.04" stop-color="#EF6300"/>
    <stop offset="1" stop-color="#E13E00"/>
    </linearGradient>
    <clipPath id="clip0_16_65">
    <rect width="38.4809" height="35.7805" fill="white" transform="translate(34.9081) rotate(77.3212)"/>
    </clipPath>
    </defs>
    </svg>
    