<svg width="37" height="37" viewBox="0 0 37 37" fill="none" xmlns="http://www.w3.org/2000/svg">
    <g filter="url(#filter0_ii_132_11)">
    <rect x="1" y="1" width="35" height="35" rx="10" fill="url(#paint0_linear_132_11)"/>
    </g>
    <rect x="0.5" y="0.5" width="36" height="36" rx="10.5" stroke="white"/>
    <g clip-path="url(#clip0_132_11)">
    <path d="M20.7651 8.13486C20.1828 7.8233 19.4799 7.85737 18.9305 8.22361L11.2502 13.344H8.33846C7.59174 13.344 6.97817 13.9204 6.91684 14.6515H6.50578C5.12403 14.6515 4 15.7756 4 17.1573V19.8427C4 21.2244 5.12403 22.3485 6.50578 22.3485H6.91684C6.97817 23.0796 7.59174 23.6561 8.33846 23.6561H11.2501L18.9305 28.7764C19.23 28.9761 19.5753 29.077 19.9216 29.077C20.2104 29.077 20.5002 29.0069 20.765 28.8652C21.3472 28.5536 21.7089 27.9499 21.7089 27.2896V9.71051C21.7089 9.05017 21.3472 8.44646 20.7651 8.13486ZM6.91078 20.9306H6.50578C5.90598 20.9306 5.41797 20.4426 5.41797 19.8428V17.1573C5.41797 16.5575 5.90598 16.0695 6.50578 16.0695H6.91078V20.9306ZM10.7559 22.2381H10.7558H8.33846C8.33313 22.2381 8.32875 22.2338 8.32875 22.2284V21.6395V14.7716C8.32875 14.7663 8.33313 14.7619 8.33846 14.7619H10.7559V22.2381ZM20.2909 27.2896C20.2909 27.4891 20.1546 27.5836 20.096 27.615C20.0374 27.6463 19.883 27.7073 19.7171 27.5966L12.1738 22.5677V14.4323L19.7171 9.40338C19.883 9.29269 20.0373 9.35365 20.096 9.38503C20.1546 9.41635 20.2909 9.51085 20.2909 9.71045V27.2896Z" fill="white"/>
    <path d="M28.8672 18.5L30.8131 16.554C31.0623 16.3048 31.0623 15.9008 30.8131 15.6515C30.5638 15.4024 30.1599 15.4024 29.9106 15.6515L27.9647 17.5975L26.0187 15.6515C25.7695 15.4025 25.3656 15.4023 25.1163 15.6515C24.8671 15.9008 24.8671 16.3048 25.1163 16.554L27.0622 18.5L25.1163 20.4459C24.867 20.6952 24.867 21.0992 25.1163 21.3484C25.2409 21.473 25.4042 21.5353 25.5675 21.5353C25.7307 21.5353 25.894 21.473 26.0187 21.3484L27.9646 19.4024L29.9106 21.3484C30.0352 21.473 30.1985 21.5353 30.3618 21.5353C30.525 21.5353 30.6883 21.473 30.813 21.3484C31.0622 21.0992 31.0622 20.6952 30.813 20.4459L28.8672 18.5Z" fill="white"/>
    </g>
    <defs>
    <filter id="filter0_ii_132_11" x="0" y="-6" width="37" height="47" filterUnits="userSpaceOnUse" color-interpolation-filters="sRGB">
    <feFlood flood-opacity="0" result="BackgroundImageFix"/>
    <feBlend mode="normal" in="SourceGraphic" in2="BackgroundImageFix" result="shape"/>
    <feColorMatrix in="SourceAlpha" type="matrix" values="0 0 0 0 0 0 0 0 0 0 0 0 0 0 0 0 0 0 127 0" result="hardAlpha"/>
    <feOffset dy="4"/>
    <feGaussianBlur stdDeviation="2"/>
    <feComposite in2="hardAlpha" operator="arithmetic" k2="-1" k3="1"/>
    <feColorMatrix type="matrix" values="0 0 0 0 1 0 0 0 0 1 0 0 0 0 1 0 0 0 0.25 0"/>
    <feBlend mode="normal" in2="shape" result="effect1_innerShadow_132_11"/>
    <feColorMatrix in="SourceAlpha" type="matrix" values="0 0 0 0 0 0 0 0 0 0 0 0 0 0 0 0 0 0 127 0" result="hardAlpha"/>
    <feOffset dy="-7"/>
    <feGaussianBlur stdDeviation="3"/>
    <feComposite in2="hardAlpha" operator="arithmetic" k2="-1" k3="1"/>
    <feColorMatrix type="matrix" values="0 0 0 0 0.566667 0 0 0 0 0.484462 0 0 0 0 0.0528889 0 0 0 0.23 0"/>
    <feBlend mode="normal" in2="effect1_innerShadow_132_11" result="effect2_innerShadow_132_11"/>
    </filter>
    <linearGradient id="paint0_linear_132_11" x1="18.5" y1="1" x2="18.5" y2="36" gradientUnits="userSpaceOnUse">
    <stop stop-color="#C96432"/>
    <stop offset="1" stop-color="#772A00"/>
    </linearGradient>
    <clipPath id="clip0_132_11">
    <rect width="27" height="27" fill="white" transform="translate(4 5)"/>
    </clipPath>
    </defs>
    </svg>
    