<svg width="37" height="37" viewBox="0 0 37 37" fill="none" xmlns="http://www.w3.org/2000/svg">
<g filter="url(#filter0_ii_132_11)">
<rect x="1" y="1" width="35" height="35" rx="10" fill="url(#paint0_linear_132_11)"/>
</g>
<rect x="0.5" y="0.5" width="36" height="36" rx="10.5" stroke="white"/>
<path d="M23.7842 9.23901C23.5772 9.31241 23.4952 9.38141 23.4218 9.54961C23.3528 9.72221 23.3484 9.92501 23.4176 10.05C23.4434 10.1018 23.7628 10.434 24.1208 10.792C25.1692 11.8274 25.7904 12.686 26.4074 13.9414C26.9554 15.0544 27.3004 16.1546 27.4902 17.3928C27.6024 18.1176 27.6024 19.895 27.4946 20.607C27.171 22.6994 26.3514 24.5932 25.0656 26.2154C24.906 26.4182 24.4788 26.8754 24.1208 27.2336C23.7584 27.5874 23.4434 27.9238 23.4132 27.9714C23.2968 28.1958 23.4132 28.5796 23.6418 28.722C23.8186 28.8298 24.125 28.8298 24.3018 28.7178C24.5132 28.5884 25.4062 27.7126 25.7902 27.251C27.4512 25.2752 28.4392 22.9886 28.7368 20.4346C28.823 19.727 28.8188 18.2862 28.7368 17.57C28.3874 14.6016 27.0716 11.931 24.936 9.86901C24.2588 9.21321 24.1034 9.12681 23.7842 9.23901Z" fill="white"/>
<path d="M22.0498 11.0942C21.8772 11.1848 21.778 11.3056 21.7262 11.4998C21.6486 11.7846 21.722 11.901 22.3172 12.492C23.9006 14.0538 24.828 15.9692 25.048 18.1436C25.2336 20.0116 24.7934 22.0006 23.8314 23.614C23.4216 24.3 22.947 24.904 22.33 25.5122C21.7518 26.086 21.657 26.237 21.713 26.47C21.7604 26.6858 21.8984 26.854 22.0796 26.9272C22.3772 27.0436 22.5326 26.992 22.964 26.608C24.2582 25.4604 25.3108 23.7908 25.8632 22.009C26.4456 20.1236 26.4456 17.8976 25.8632 16.0122C25.3412 14.3296 24.4912 12.9232 23.2316 11.6722C22.5892 11.0338 22.3734 10.9302 22.0498 11.0942Z" fill="white"/>
<path d="M17.5286 11.6808C17.438 11.7024 17.3042 11.7498 17.2266 11.7886C17.149 11.8318 16.0834 12.6472 14.8538 13.6006L12.6234 15.3436H11.381H10.134L9.86661 15.4774C9.56901 15.6284 9.34881 15.883 9.25821 16.1806C9.18061 16.4438 9.18061 21.5992 9.25821 21.8366C9.37901 22.199 9.62061 22.4536 10.0002 22.6132C10.134 22.665 10.3798 22.678 11.3936 22.678H12.6232L14.8666 24.4296C16.1004 25.3918 17.205 26.22 17.317 26.2674C17.77 26.4744 18.3308 26.3408 18.6846 25.9482C19.0298 25.56 19.0082 26.0646 19.0082 19.011C19.0082 11.9572 19.0298 12.462 18.6846 12.0738C18.3914 11.7456 17.9168 11.586 17.5286 11.6808ZM17.7918 22.0782L17.7788 25.1456L15.6346 23.476L13.4862 21.802V19.0108V16.2196L15.6346 14.5456L17.7788 12.8716L17.7918 15.9432C17.796 17.6302 17.796 20.3912 17.7918 22.0782ZM12.8822 19.0108V21.47H11.6526H10.423V19.0108V16.5518H11.6526H12.8822V19.0108Z" fill="white"/>
<path d="M20.5658 13.5618C20.376 13.6568 20.2596 13.8508 20.2596 14.0838C20.2596 14.3384 20.3028 14.403 20.7212 14.8216C21.5322 15.6284 22.0414 16.5128 22.3132 17.5826C22.8308 19.619 22.2184 21.7416 20.6954 23.217C20.333 23.5708 20.2596 23.6872 20.2596 23.9288C20.2596 24.1618 20.3718 24.3472 20.5702 24.4508C20.8938 24.6148 21.1008 24.5414 21.5582 24.097C22.749 22.9366 23.478 21.4568 23.6678 19.8174C23.7412 19.209 23.698 18.178 23.5816 17.6214C23.2796 16.1804 22.6022 14.9422 21.5582 13.9242C21.1094 13.4842 20.885 13.4066 20.5658 13.5618Z" fill="white"/>
<defs>
<filter id="filter0_ii_132_11" x="0" y="-6" width="37" height="47" filterUnits="userSpaceOnUse" color-interpolation-filters="sRGB">
<feFlood flood-opacity="0" result="BackgroundImageFix"/>
<feBlend mode="normal" in="SourceGraphic" in2="BackgroundImageFix" result="shape"/>
<feColorMatrix in="SourceAlpha" type="matrix" values="0 0 0 0 0 0 0 0 0 0 0 0 0 0 0 0 0 0 127 0" result="hardAlpha"/>
<feOffset dy="4"/>
<feGaussianBlur stdDeviation="2"/>
<feComposite in2="hardAlpha" operator="arithmetic" k2="-1" k3="1"/>
<feColorMatrix type="matrix" values="0 0 0 0 1 0 0 0 0 1 0 0 0 0 1 0 0 0 0.25 0"/>
<feBlend mode="normal" in2="shape" result="effect1_innerShadow_132_11"/>
<feColorMatrix in="SourceAlpha" type="matrix" values="0 0 0 0 0 0 0 0 0 0 0 0 0 0 0 0 0 0 127 0" result="hardAlpha"/>
<feOffset dy="-7"/>
<feGaussianBlur stdDeviation="3"/>
<feComposite in2="hardAlpha" operator="arithmetic" k2="-1" k3="1"/>
<feColorMatrix type="matrix" values="0 0 0 0 0.566667 0 0 0 0 0.484462 0 0 0 0 0.0528889 0 0 0 0.23 0"/>
<feBlend mode="normal" in2="effect1_innerShadow_132_11" result="effect2_innerShadow_132_11"/>
</filter>
<linearGradient id="paint0_linear_132_11" x1="18.5" y1="1" x2="18.5" y2="36" gradientUnits="userSpaceOnUse">
<stop stop-color="#C96432"/>
<stop offset="1" stop-color="#772A00"/>
</linearGradient>
</defs>
</svg>
